<svg version="1.1" id="Layer_1" xmlns="http://www.w3.org/2000/svg" xmlns:xlink="http://www.w3.org/1999/xlink" x="0px" y="0px"
	 width="50px" viewBox="0 0 582 583" enable-background="new 0 0 582 583" xml:space="preserve">

<path fill="#00ADB5" opacity="1.000000" stroke="none" 
	d="
M526.467651,584.000000 
	C526.033447,583.511230 526.281433,582.732910 526.069214,582.575745 
	C519.328247,577.583130 518.842957,570.230103 517.890564,562.726929 
	C516.348572,550.579956 511.136322,539.821228 502.508545,531.118469 
	C474.113983,502.476959 445.586823,473.966156 416.999756,445.516510 
	C367.273773,396.029572 317.405518,346.685486 267.740143,297.137939 
	C257.497864,286.919983 245.094254,280.545624 232.047623,275.072723 
	C214.615417,267.760101 197.218903,260.352814 179.662369,253.348984 
	C163.794830,247.018936 148.909164,238.979889 135.173599,228.885910 
	C129.489059,224.708466 123.941750,220.219025 118.939087,215.259186 
	C85.814156,182.417725 52.737366,149.525696 19.894243,116.402908 
	C5.417171,101.802567 1.584265,84.229607 8.271077,64.789497 
	C9.648726,60.784363 12.649014,57.061451 15.662589,53.944366 
	C26.665516,42.563541 38.138756,31.637865 49.159794,20.273996 
	C66.255699,2.646283 86.872314,3.471307 105.339279,14.598982 
	C114.768822,20.280951 122.058586,29.613092 130.052780,37.559696 
	C155.578766,62.933762 181.092499,88.322083 206.396576,113.916855 
	C225.970688,133.715836 241.190475,156.333023 251.380066,182.485336 
	C260.253876,205.260666 270.145203,227.656647 280.203369,249.942017 
	C282.895325,255.906418 287.197662,261.495422 291.852325,266.169678 
	C358.294159,332.891205 424.896698,399.452911 491.529816,465.983643 
	C505.287476,479.720184 519.140686,493.372803 533.307617,506.683289 
	C541.768433,514.632507 552.536377,518.791748 563.854675,519.700195 
	C571.683533,520.328613 577.678650,522.685364 582.735229,528.315430 
	C583.000000,533.688049 583.000000,539.376038 582.744507,545.203918 
	C581.969360,545.750732 581.284119,546.054016 580.954163,546.580017 
	C573.228638,558.898315 562.285339,567.973816 550.924683,576.672668 
	C548.080444,578.850403 545.630920,581.543640 543.000000,584.000000 
	C537.645081,584.000000 532.290100,584.000000 526.467651,584.000000 
M135.004166,141.885712 
	C135.024994,153.873093 135.045822,165.860489 134.128311,177.971512 
	C127.262726,177.971512 120.397133,177.971512 112.131172,177.971512 
	C122.088745,187.088181 130.826157,195.187515 139.672836,203.165680 
	C155.994492,217.885056 175.512161,227.005219 195.641388,235.092804 
	C198.770157,236.349899 200.599991,235.872849 202.154388,232.547226 
	C196.042358,223.833511 189.854843,215.024185 183.680328,206.205765 
	C178.230820,198.422775 172.320511,190.902084 167.614441,182.691940 
	C165.985428,179.850006 166.456192,174.977890 167.603867,171.586761 
	C168.944382,167.625809 173.385269,167.553329 177.063141,168.106812 
	C179.078644,168.410156 181.168198,169.417725 182.837296,170.637421 
	C196.063370,180.302322 209.154785,190.151642 222.389542,199.804489 
	C225.396561,201.997665 228.237091,205.334167 233.685944,203.154922 
	C223.558838,167.160995 201.354858,139.941299 172.838333,116.205109 
	C172.838333,124.385399 172.838333,131.977631 172.838333,139.998703 
	C161.663757,139.998703 150.870743,139.958115 140.078659,140.040833 
	C138.386536,140.053787 136.698685,140.626816 135.004166,141.885712 
M107.859818,48.479473 
	C104.345833,44.931904 100.868568,41.347038 97.310814,37.843918 
	C87.479477,28.163555 74.393761,27.064301 64.289032,37.202724 
	C54.292919,47.232162 44.209599,57.175449 34.282078,67.272102 
	C30.127407,71.497551 27.610703,76.434151 27.924181,82.722061 
	C28.290977,90.079506 39.858604,107.266335 46.682472,109.856895 
	C47.130322,110.026909 47.670216,109.988899 48.167358,109.989433 
	C55.286060,109.997047 62.404770,109.994637 70.070595,109.994637 
	C70.070595,97.149055 70.070595,84.760025 70.070595,71.824615 
	C83.005959,71.824615 95.392487,71.824615 107.978416,71.824615 
	C107.978416,63.948212 107.978416,56.631962 107.859818,48.479473 
M112.500183,96.000000 
	C106.409210,96.000000 100.318237,96.000000 93.878891,96.000000 
	C93.878891,108.986687 93.878891,121.253479 93.878891,134.128265 
	C86.196999,134.128265 78.867409,134.128265 70.087845,134.128265 
	C76.750793,140.603287 82.299149,146.102585 88.004295,151.434097 
	C88.960388,152.327576 90.584747,152.889267 91.919647,152.927399 
	C97.579247,153.089020 103.248581,152.895844 108.909348,153.035446 
	C111.906891,153.109375 113.120399,152.001953 113.039330,148.954514 
	C112.893188,143.460800 112.999420,137.960358 112.999710,132.462738 
	C113.000038,126.376816 112.999786,120.290894 112.999786,113.862656 
	C126.027184,113.862656 138.292267,113.862656 150.993088,113.862656 
	C150.993088,106.713913 151.030594,99.923546 150.947495,93.134659 
	C150.936615,92.245636 150.534988,91.145546 149.928497,90.513313 
	C144.330978,84.678062 138.648529,78.924271 131.962036,72.096252 
	C131.962036,80.962563 131.962036,88.318855 131.962036,96.000000 
	C125.437675,96.000000 119.468727,96.000000 112.500183,96.000000 
z"/>
</svg>